<svg width="300.7" height="65.96" viewBox="0 0 300.7 65.96" xmlns="http://www.w3.org/2000/svg"><g id="svgGroup" stroke-linecap="round" fill-rule="evenodd" font-size="9pt" stroke="#000" stroke-width="0.25mm" fill="black" style="stroke:#000;stroke-width:0.25mm;fill:black"><path d="M 40.02 60.408 A 2.554 2.554 0 0 0 41.5 60.9 A 2.967 2.967 0 0 0 41.918 60.869 Q 43.03 60.71 44.7 59.75 A 20.838 20.838 0 0 0 46.193 58.803 A 25.194 25.194 0 0 0 48.65 56.85 A 19.04 19.04 0 0 0 49.303 56.236 Q 50.758 54.801 51.5 53.4 Q 51.981 52.575 52.439 52.223 A 1.315 1.315 0 0 1 52.85 52 A 7.639 7.639 0 0 1 52.908 51.983 Q 53.308 51.863 53.611 51.822 A 2.159 2.159 0 0 1 53.9 51.8 L 54.15 52.45 A 3.591 3.591 0 0 1 54.322 53.053 A 4.42 4.42 0 0 1 54.4 53.9 A 8.214 8.214 0 0 0 54.469 54.986 Q 54.863 57.939 57.5 59.3 A 5.186 5.186 0 0 0 59.336 60.122 A 6.972 6.972 0 0 0 60.95 60.3 A 8.032 8.032 0 0 0 61.022 60.3 Q 62.142 60.29 63.335 59.968 A 12.704 12.704 0 0 0 65.3 59.25 A 13.427 13.427 0 0 0 67.447 58.011 A 17.145 17.145 0 0 0 69.7 56.1 A 18.564 18.564 0 0 1 69.808 55.993 Q 70.189 55.618 70.635 55.222 A 30.893 30.893 0 0 1 71.6 54.4 A 7.558 7.558 0 0 0 71.921 54.12 Q 72.735 53.373 74.105 51.791 A 89.553 89.553 0 0 0 75.2 50.5 Q 76 49.3 77 48.25 A 258.085 258.085 0 0 1 77.335 47.899 Q 78.071 47.129 78.4 46.8 Q 78.9 46.2 79.65 44.65 A 34.492 34.492 0 0 0 80.019 43.863 A 38.925 38.925 0 0 0 81.05 41.35 Q 81.497 40.147 81.778 39.251 A 20.659 20.659 0 0 0 82 38.5 A 56.923 56.923 0 0 0 82 38.442 Q 81.999 37.281 81.95 36.5 A 2.682 2.682 0 0 0 81.949 36.483 Q 81.931 36.217 81.862 35.996 A 1.395 1.395 0 0 0 81.4 35.3 A 7.658 7.658 0 0 0 81.342 35.234 Q 80.914 34.757 80.524 34.487 A 2.318 2.318 0 0 0 80.1 34.25 Q 79.638 34.058 79.059 34.25 A 2.716 2.716 0 0 0 78.7 34.4 A 8.868 8.868 0 0 0 78.388 34.563 Q 77.642 34.974 77.35 35.35 Q 77 35.8 76.4 36.6 A 9.364 9.364 0 0 0 76.398 36.602 Q 75.753 37.391 75.571 37.923 A 1.178 1.178 0 0 0 75.5 38.3 Q 75.5 38.625 74.939 39.676 A 23.84 23.84 0 0 1 74.65 40.2 Q 74.119 41.138 73.431 42.251 A 98.496 98.496 0 0 1 72.55 43.65 A 71.127 71.127 0 0 1 72.394 43.893 A 64.912 64.912 0 0 1 70 47.35 Q 68.7 49.1 67.8 50 A 24.836 24.836 0 0 1 66.465 51.304 Q 65.819 51.886 65.216 52.328 A 9.941 9.941 0 0 1 64 53.1 Q 62.911 53.677 62.027 53.884 A 4.074 4.074 0 0 1 61.1 54 A 3.05 3.05 0 0 1 60.491 53.942 A 2.175 2.175 0 0 1 59.75 53.65 A 0.635 0.635 0 0 1 59.579 53.483 Q 59.2 52.959 59.2 51.3 A 11.609 11.609 0 0 1 59.2 51.229 Q 59.207 50.15 59.413 48.651 A 39.888 39.888 0 0 1 59.65 47.15 Q 60.1 44.6 60.85 42.1 Q 61.319 40.538 61.807 39.327 A 18.16 18.16 0 0 1 62.4 38 Q 63.188 36.425 63.458 35.173 A 5.807 5.807 0 0 0 63.6 33.95 A 3.95 3.95 0 0 0 63.349 32.536 A 4.066 4.066 0 0 0 62.4 31.1 Q 61.669 30.613 61.03 30.385 A 3.387 3.387 0 0 0 60.25 30.2 Q 59.3 30.1 58.6 30.6 A 1.276 1.276 0 0 0 58.394 30.8 Q 58.188 31.045 57.968 31.479 A 8.242 8.242 0 0 0 57.75 31.95 A 18.132 18.132 0 0 0 57.518 32.521 Q 57.173 33.408 56.8 34.6 Q 56.1 36.5 55.45 38.15 A 23.615 23.615 0 0 1 55.447 38.157 Q 55.118 38.991 54.674 39.89 A 31.366 31.366 0 0 1 53.7 41.7 Q 52.6 43.6 50.5 46.6 A 59.92 59.92 0 0 1 50.057 47.234 Q 47.266 51.176 45.55 52.15 A 6.544 6.544 0 0 1 45.358 52.255 Q 44.058 52.936 43.394 52.48 A 1.176 1.176 0 0 1 43.05 52.1 Q 42.4 51 42.7 49.2 A 17.644 17.644 0 0 0 42.713 49.138 Q 42.912 48.193 43.089 46.85 A 60.44 60.44 0 0 0 43.25 45.5 Q 43.5 43.2 43.75 41.1 A 50.971 50.971 0 0 1 43.845 40.345 Q 43.988 39.28 44.113 38.782 A 2.292 2.292 0 0 1 44.2 38.5 Q 44.634 37.922 44.911 36.795 A 12.061 12.061 0 0 0 45.1 35.85 Q 45.357 34.264 45.357 32.752 A 17.578 17.578 0 0 0 45.35 32.25 Q 45.3 30.5 44.7 30 A 3.217 3.217 0 0 0 44.536 29.762 A 2.516 2.516 0 0 0 43.4 28.9 Q 42.6 28.6 41.8 28.75 Q 41 28.9 40.5 29.5 A 1.712 1.712 0 0 0 40.328 29.705 Q 40.014 30.137 39.7 31 Q 39.3 32.1 38.9 33.8 A 139.137 139.137 0 0 0 38.823 34.125 Q 38.388 35.971 38.25 36.8 Q 38.1 37.7 38.05 38.1 A 1.492 1.492 0 0 1 38.047 38.123 Q 38.009 38.39 37.863 38.745 A 5.44 5.44 0 0 1 37.7 39.1 Q 37.3 41 36.95 42.95 A 14.15 14.15 0 0 0 36.935 43.037 Q 36.707 44.353 36.634 46.222 A 48.419 48.419 0 0 0 36.6 48.1 A 27.071 27.071 0 0 0 36.547 49.789 A 24.293 24.293 0 0 0 36.95 54.25 A 18.886 18.886 0 0 0 37.125 55.084 Q 37.386 56.204 37.761 57.148 A 9.94 9.94 0 0 0 38.75 59.05 A 6.667 6.667 0 0 0 39.252 59.706 Q 39.625 60.134 40.02 60.408 Z M 156.2 36.5 L 158.9 30.7 L 154.9 29.6 Q 154.2 29.4 153.75 28.8 A 3.704 3.704 0 0 1 153.543 28.495 Q 153.352 28.18 153.311 27.931 A 0.808 0.808 0 0 1 153.3 27.8 A 1.856 1.856 0 0 1 153.404 27.216 Q 153.576 26.7 154.031 26.073 A 7.946 7.946 0 0 1 154.2 25.85 A 10.605 10.605 0 0 1 154.52 25.459 Q 155.175 24.7 155.5 24.7 Q 156 24.8 157.35 24.8 Q 158.7 24.8 160 24.7 Q 161.027 24.621 161.43 24.542 A 1.433 1.433 0 0 0 161.6 24.5 A 3.411 3.411 0 0 0 162.05 24.228 A 4.436 4.436 0 0 0 162.4 23.95 A 1.663 1.663 0 0 0 162.731 23.545 Q 162.843 23.357 162.928 23.123 A 3.338 3.338 0 0 0 163 22.9 Q 163.5 21.8 163.9 20.85 A 14.235 14.235 0 0 1 164.242 20.102 Q 164.442 19.695 164.688 19.249 A 26.375 26.375 0 0 1 165 18.7 Q 165.481 17.806 165.844 17.102 A 55.865 55.865 0 0 0 166.15 16.5 Q 166.495 15.811 167.161 14.712 A 62.942 62.942 0 0 1 167.6 14 Q 167.983 13.464 168.424 12.752 A 36.068 36.068 0 0 0 168.7 12.3 Q 169.3 11.3 170.2 10.6 Q 171.047 9.847 171.938 9.847 A 2.123 2.123 0 0 1 172.05 9.85 A 2.048 2.048 0 0 1 172.663 9.99 Q 173.231 10.205 173.944 10.746 A 11.215 11.215 0 0 1 174.5 11.2 Q 175.3 12.2 175.4 12.7 Q 175.491 13.156 174.752 14.358 A 14.056 14.056 0 0 1 174.6 14.6 A 33.738 33.738 0 0 1 173.009 17.575 A 37.085 37.085 0 0 1 172.75 18 Q 171.7 19.7 170.8 21.4 Q 169.2 23.6 170.2 23.9 A 1.768 1.768 0 0 0 170.471 23.955 Q 171.718 24.121 175.8 23.5 Q 178.227 23.082 179.534 23.539 A 2.746 2.746 0 0 1 180 23.75 A 2.912 2.912 0 0 1 181.399 25.644 A 4.324 4.324 0 0 1 181.5 26.2 A 11.993 11.993 0 0 1 181.55 26.671 Q 181.693 28.36 181.192 28.935 A 0.858 0.858 0 0 1 181 29.1 Q 180.2 29.6 176.4 29.6 A 43.037 43.037 0 0 1 174.698 29.851 Q 173.874 29.954 173.154 30.006 A 20.34 20.34 0 0 1 172.3 30.05 Q 170.664 30.098 169.861 30.1 A 27.152 27.152 0 0 1 169.8 30.1 A 87.305 87.305 0 0 1 169.274 30.139 Q 168.413 30.2 168.1 30.2 Q 167.7 30.2 166.9 30.4 A 3.106 3.106 0 0 0 166.434 30.554 Q 165.988 30.744 165.75 31.05 Q 165.515 31.352 165.257 31.813 A 11.826 11.826 0 0 0 165 32.3 Q 164.653 32.647 164.004 33.975 A 31.857 31.857 0 0 0 163.8 34.4 Q 163.006 36.087 161.819 38.069 A 57.83 57.83 0 0 1 161.8 38.1 Q 160.4 42.3 159.4 46.45 A 100.226 100.226 0 0 0 158.039 53.029 A 89.083 89.083 0 0 0 157.8 54.5 A 17.048 17.048 0 0 0 157.699 55.228 Q 157.524 56.736 157.749 57.556 A 1.956 1.956 0 0 0 157.9 57.95 Q 158.4 58.9 160.5 59.1 Q 161.53 59.194 163.745 59.068 A 68.396 68.396 0 0 0 164.05 59.05 A 31.311 31.311 0 0 0 165.479 58.932 Q 166.938 58.775 167.9 58.5 Q 169 58 170.2 57.45 A 24.117 24.117 0 0 0 171.622 56.743 A 20.017 20.017 0 0 0 172.4 56.3 Q 173.3 55.8 174.2 55.25 L 175.1 54.7 A 2.075 2.075 0 0 1 175.279 54.452 Q 175.659 54.007 176.093 54.155 A 0.857 0.857 0 0 1 176.2 54.2 A 1.283 1.283 0 0 1 176.589 54.513 Q 176.873 54.838 177.1 55.422 A 6.01 6.01 0 0 1 177.2 55.7 A 6.414 6.414 0 0 1 176.995 57.279 A 8.134 8.134 0 0 1 176.7 58.2 Q 176.2 59.5 173 61.3 A 30.64 30.64 0 0 1 169.796 63.053 Q 167.123 64.302 164.75 64.65 Q 161 65.2 158.4 64.7 A 3.982 3.982 0 0 1 157.358 64.348 Q 156.915 64.13 156.464 63.796 A 7.587 7.587 0 0 1 156.15 63.55 Q 155 62.6 154.15 61.35 Q 153.3 60.1 153 59.1 A 0.428 0.428 0 0 0 152.974 58.96 Q 152.931 58.838 152.82 58.688 A 2.072 2.072 0 0 0 152.75 58.6 L 152.5 58.3 A 0.558 0.558 0 0 1 152.342 58.071 Q 152.098 57.506 152.053 55.774 A 27.117 27.117 0 0 1 152.05 55.65 A 32.098 32.098 0 0 1 152.043 54.967 Q 152.043 53.927 152.107 52.785 A 51.15 51.15 0 0 1 152.3 50.4 A 62.591 62.591 0 0 1 152.497 48.705 Q 152.725 46.969 153 45.8 Q 153.5 44.2 154.5 41.45 A 156.334 156.334 0 0 0 155.372 38.993 Q 155.771 37.834 156.106 36.795 A 91.922 91.922 0 0 0 156.2 36.5 Z M 5.8 65.8 Q 3.9 65 2.2 63.65 Q 0.5 62.3 0 61.4 A 4.263 4.263 0 0 1 0.019 60.984 Q 0.06 60.568 0.19 60.316 A 0.859 0.859 0 0 1 0.3 60.15 Q 0.581 59.822 1.873 59.845 A 10.834 10.834 0 0 1 2.05 59.85 Q 3.385 59.896 6.29 60.239 A 165.389 165.389 0 0 1 6.8 60.3 A 18.632 18.632 0 0 0 7.74 60.274 Q 8.193 60.251 8.708 60.208 A 41.794 41.794 0 0 0 9.8 60.1 Q 11.6 59.9 13.15 59.5 A 7.451 7.451 0 0 0 13.744 59.322 Q 14.742 58.973 14.9 58.5 A 1.071 1.071 0 0 0 15.004 58.495 Q 15.335 58.463 15.141 58.201 A 0.917 0.917 0 0 0 15.1 58.15 Q 14.8 57.8 14.4 57.4 A 1.112 1.112 0 0 1 14.059 57.342 Q 13.911 57.295 13.753 57.208 A 2.707 2.707 0 0 1 13.5 57.05 A 2.608 2.608 0 0 0 13.197 56.865 Q 13.037 56.783 12.888 56.742 A 1.075 1.075 0 0 0 12.6 56.7 A 0.69 0.69 0 0 0 12.505 56.369 Q 12.299 55.994 11.65 55.55 Q 10.7 54.9 9.7 54.5 Q 7.809 52.953 6.362 51.665 A 69.353 69.353 0 0 1 5.9 51.25 Q 4.3 49.8 4.7 49.3 L 4.7 48.85 L 4.7 48.8 Q 4.085 48.8 3.353 47.254 A 12.456 12.456 0 0 1 3.15 46.8 Q 2.474 45.21 2.336 43.873 A 6.529 6.529 0 0 1 2.3 43.2 Q 2.3 42 3 40.15 A 21.654 21.654 0 0 1 3.946 38.021 A 27.755 27.755 0 0 1 4.9 36.3 A 20.881 20.881 0 0 1 5.969 34.684 Q 6.559 33.88 7.172 33.234 A 12.321 12.321 0 0 1 7.4 33 A 33.743 33.743 0 0 1 8.877 31.69 Q 9.712 30.989 10.684 30.25 A 62.281 62.281 0 0 1 11.9 29.35 Q 14.6 27.4 17.25 25.85 Q 19.824 24.344 21.597 23.829 A 9.125 9.125 0 0 1 21.7 23.8 A 11.22 11.22 0 0 1 23.28 23.309 Q 24.202 23.1 25.05 23.1 A 5.842 5.842 0 0 1 26.641 23.309 A 4.961 4.961 0 0 1 27.8 23.8 A 5.856 5.856 0 0 1 29.104 24.7 A 7.261 7.261 0 0 1 29.65 25.25 Q 30.5 26.2 31.15 27.15 Q 31.8 28.1 32 28.8 Q 32 30 31.8 31.45 A 18.798 18.798 0 0 1 31.596 32.652 Q 31.47 33.267 31.31 33.804 A 11.057 11.057 0 0 1 31.25 34 A 3.038 3.038 0 0 1 31.08 34.429 Q 30.747 35.1 30.2 35.1 L 29.95 35.15 Q 29.73 35.194 29.704 35.585 A 1.691 1.691 0 0 0 29.7 35.7 Q 29.7 36.553 28.609 37.624 A 8.969 8.969 0 0 1 28.2 38 Q 26.3 39.3 24.9 39.55 Q 23.748 39.756 23.341 38.912 A 1.96 1.96 0 0 1 23.2 38.5 A 4.124 4.124 0 0 1 23.032 38.26 Q 22.952 38.135 22.894 38.022 A 1.641 1.641 0 0 1 22.8 37.8 A 0.402 0.402 0 0 0 22.523 37.53 Q 22.445 37.506 22.346 37.501 A 0.998 0.998 0 0 0 22.3 37.5 L 22 37.2 A 0.872 0.872 0 0 1 21.809 36.897 Q 21.707 36.638 21.7 36.252 A 3.163 3.163 0 0 1 21.7 36.2 A 1.069 1.069 0 0 1 21.872 35.622 A 1.451 1.451 0 0 1 22 35.45 L 22.3 35.1 A 0.632 0.632 0 0 0 22.6 35.012 Q 22.978 34.805 23.481 34.117 A 8.728 8.728 0 0 0 23.6 33.95 A 17.942 17.942 0 0 0 24.885 31.784 A 19.946 19.946 0 0 0 25.05 31.45 A 16.285 16.285 0 0 0 25.303 30.9 Q 25.639 30.131 25.691 29.733 A 1.037 1.037 0 0 0 25.7 29.6 Q 25.7 29 25.55 28.9 A 0.326 0.326 0 0 0 25.458 28.862 Q 25.235 28.801 24.621 28.8 A 12.591 12.591 0 0 0 24.6 28.8 A 45.364 45.364 0 0 0 23.466 29.306 Q 22.958 29.541 22.391 29.814 A 95.801 95.801 0 0 0 21.2 30.4 Q 19.2 31.4 17.45 32.35 Q 15.841 33.224 15.035 33.97 A 4.913 4.913 0 0 0 14.9 34.1 A 83.391 83.391 0 0 1 14.761 34.343 Q 14.481 34.828 14.4 34.95 A 0.25 0.25 0 0 1 14.302 35.032 Q 14.208 35.08 14.048 35.094 A 1.692 1.692 0 0 1 13.9 35.1 A 0.332 0.332 0 0 0 13.895 35.039 Q 13.844 34.765 13.25 35.45 A 19.421 19.421 0 0 0 12.814 35.972 Q 12.32 36.586 11.692 37.443 A 62.109 62.109 0 0 0 11.65 37.5 A 93.232 93.232 0 0 0 10.064 39.737 A 84.758 84.758 0 0 0 9.85 40.05 Q 9.015 41.277 8.615 41.878 A 81.413 81.413 0 0 0 8.6 41.9 Q 8.435 42.065 8.235 42.743 A 11.05 11.05 0 0 0 8.15 43.05 A 8.125 8.125 0 0 0 7.966 43.935 A 5.955 5.955 0 0 0 7.9 44.8 Q 7.642 45.573 7.758 46.035 A 0.807 0.807 0 0 0 8 46.45 A 18.045 18.045 0 0 0 8.276 46.692 Q 8.872 47.206 10.2 48.3 A 189.437 189.437 0 0 1 11.856 49.544 Q 14.2 51.325 15.7 52.6 Q 17.7 54.3 18.7 55.4 Q 19.697 56.497 19.899 57.395 A 2.256 2.256 0 0 1 19.9 57.4 Q 21.7 60.4 21 62 A 3.759 3.759 0 0 1 20.194 63.144 Q 19.288 64.05 17.6 64.8 A 4.847 4.847 0 0 1 16.935 65.065 Q 15.953 65.384 14.3 65.6 Q 12 65.9 9.6 65.95 Q 7.83 65.987 6.604 65.888 A 13.27 13.27 0 0 1 5.8 65.8 Z M 239.856 65.508 A 4.373 4.373 0 0 0 240.4 65.4 A 2.164 2.164 0 0 0 240.717 65.208 A 1.381 1.381 0 0 0 241.3 64.25 A 5.477 5.477 0 0 0 241.326 64.007 Q 241.381 63.378 241.395 62.071 A 90.971 90.971 0 0 0 241.4 61.1 Q 241.4 59.17 242.042 56.383 A 47.156 47.156 0 0 1 242.75 53.7 Q 244.1 49.1 245.7 43.6 Q 246.975 40.173 247.234 38.842 A 2.996 2.996 0 0 0 247.3 38.3 L 247.35 37.75 A 1.282 1.282 0 0 1 247.368 37.621 Q 247.42 37.356 247.577 37.258 A 0.413 0.413 0 0 1 247.8 37.2 A 2.294 2.294 0 0 0 247.934 37.054 Q 248.052 36.914 248.126 36.775 A 1.076 1.076 0 0 0 248.25 36.4 Q 248.3 36 248.3 35.6 Q 248.3 35.4 248.8 34.15 A 94.149 94.149 0 0 1 249.137 33.32 Q 249.318 32.88 249.523 32.392 A 186.249 186.249 0 0 1 250.05 31.15 Q 250.8 29.4 251.5 27.85 A 138.005 138.005 0 0 1 251.812 27.165 Q 252.294 26.113 252.6 25.5 A 34.816 34.816 0 0 1 252.845 24.789 Q 252.965 24.453 253.08 24.156 A 16.904 16.904 0 0 1 253.35 23.5 A 7.947 7.947 0 0 0 253.476 23.196 Q 253.622 22.82 253.673 22.553 A 1.37 1.37 0 0 0 253.7 22.3 A 0.395 0.395 0 0 1 253.7 22.283 Q 253.719 21.863 254.6 20.15 A 39.409 39.409 0 0 0 255.044 19.259 A 45.132 45.132 0 0 0 256.3 16.4 A 13406.468 13406.468 0 0 0 256.369 16.256 Q 258.216 12.366 259.1 10.5 A 47.165 47.165 0 0 0 259.474 9.692 Q 259.852 8.853 260.084 8.234 A 10.185 10.185 0 0 0 260.3 7.6 A 5.891 5.891 0 0 0 260.32 7.533 Q 260.464 7.03 260.534 6.453 A 9.584 9.584 0 0 0 260.6 5.3 A 18.206 18.206 0 0 0 260.597 4.968 Q 260.588 4.48 260.553 4.045 A 10.22 10.22 0 0 0 260.45 3.2 Q 260.3 2.3 259.5 1.6 L 258.3 0.4 L 257.9 0 Q 257.5 0 257.05 0.1 Q 256.6 0.2 256.3 0.5 A 2.814 2.814 0 0 0 256.037 0.512 Q 255.431 0.569 255.1 0.9 Q 254.822 1.178 254.737 1.65 A 2.55 2.55 0 0 0 254.7 2.1 A 0.777 0.777 0 0 1 254.699 2.13 Q 254.683 2.563 254.205 4.134 A 63.125 63.125 0 0 1 253.95 4.95 A 136.841 136.841 0 0 1 253.437 6.521 Q 253.159 7.358 252.837 8.298 A 288.768 288.768 0 0 1 252 10.7 Q 250.8 14.1 249.45 17.6 Q 248.1 21.1 246.95 23.95 A 95.729 95.729 0 0 1 246.43 25.215 Q 245.634 27.108 245.1 28.1 A 1.345 1.345 0 0 1 245.025 28.538 A 1.758 1.758 0 0 1 244.85 28.9 A 1.83 1.83 0 0 0 244.708 29.175 A 1.374 1.374 0 0 0 244.6 29.7 A 1.372 1.372 0 0 1 244.599 29.761 Q 244.581 30.148 244.35 30.75 Q 244.1 31.4 244.1 31.9 Q 243.7 32.3 243.35 33.3 Q 243.159 33.847 243.072 34.334 A 4.376 4.376 0 0 0 243 35.1 A 3.292 3.292 0 0 1 242.971 35.538 A 3.678 3.678 0 0 1 242.7 36.5 A 2.743 2.743 0 0 1 242.629 36.653 Q 242.354 37.2 242 37.2 Q 241.838 37.525 241.378 38.675 A 127.923 127.923 0 0 0 241.15 39.25 A 53.742 53.742 0 0 0 241.108 39.357 Q 240.477 40.968 239.8 43 A 200.555 200.555 0 0 0 239.456 44.041 A 177.65 177.65 0 0 0 238.5 47.05 A 67.354 67.354 0 0 0 238.241 47.912 Q 237.853 49.234 237.7 50 A 3.502 3.502 0 0 1 237.698 50.104 Q 237.685 50.554 237.558 51.175 A 12.974 12.974 0 0 1 237.4 51.85 A 16.118 16.118 0 0 1 237.238 52.428 A 18.411 18.411 0 0 1 236.6 54.2 A 35.469 35.469 0 0 0 236.433 55.02 Q 235.951 57.531 235.96 59.552 A 15.071 15.071 0 0 0 236 60.6 A 11.327 11.327 0 0 0 236.187 62.003 Q 236.335 62.736 236.578 63.327 A 4.473 4.473 0 0 0 237.35 64.6 A 3.338 3.338 0 0 0 237.442 64.7 Q 238.401 65.699 239.856 65.508 Z M 257.756 65.508 A 4.373 4.373 0 0 0 258.3 65.4 A 2.164 2.164 0 0 0 258.617 65.208 A 1.381 1.381 0 0 0 259.2 64.25 A 5.477 5.477 0 0 0 259.226 64.007 Q 259.281 63.378 259.295 62.071 A 90.971 90.971 0 0 0 259.3 61.1 Q 259.3 59.17 259.942 56.383 A 47.156 47.156 0 0 1 260.65 53.7 Q 262 49.1 263.6 43.6 Q 264.875 40.173 265.134 38.842 A 2.996 2.996 0 0 0 265.2 38.3 L 265.25 37.75 A 1.282 1.282 0 0 1 265.268 37.621 Q 265.32 37.356 265.477 37.258 A 0.413 0.413 0 0 1 265.7 37.2 A 2.294 2.294 0 0 0 265.834 37.054 Q 265.952 36.914 266.026 36.775 A 1.076 1.076 0 0 0 266.15 36.4 Q 266.2 36 266.2 35.6 Q 266.2 35.4 266.7 34.15 A 94.149 94.149 0 0 1 267.037 33.32 Q 267.218 32.88 267.423 32.392 A 186.249 186.249 0 0 1 267.95 31.15 Q 268.7 29.4 269.4 27.85 A 138.005 138.005 0 0 1 269.712 27.165 Q 270.194 26.113 270.5 25.5 A 34.816 34.816 0 0 1 270.745 24.789 Q 270.865 24.453 270.98 24.156 A 16.904 16.904 0 0 1 271.25 23.5 A 7.947 7.947 0 0 0 271.376 23.196 Q 271.522 22.82 271.573 22.553 A 1.37 1.37 0 0 0 271.6 22.3 A 0.395 0.395 0 0 1 271.6 22.283 Q 271.619 21.863 272.5 20.15 A 39.409 39.409 0 0 0 272.944 19.259 A 45.132 45.132 0 0 0 274.2 16.4 A 13406.468 13406.468 0 0 0 274.269 16.256 Q 276.116 12.366 277 10.5 A 47.165 47.165 0 0 0 277.374 9.692 Q 277.752 8.853 277.984 8.234 A 10.185 10.185 0 0 0 278.2 7.6 A 5.891 5.891 0 0 0 278.22 7.533 Q 278.364 7.03 278.434 6.453 A 9.584 9.584 0 0 0 278.5 5.3 A 18.206 18.206 0 0 0 278.497 4.968 Q 278.488 4.48 278.453 4.045 A 10.22 10.22 0 0 0 278.35 3.2 Q 278.2 2.3 277.4 1.6 L 276.2 0.4 L 275.8 0 Q 275.4 0 274.95 0.1 Q 274.5 0.2 274.2 0.5 A 2.814 2.814 0 0 0 273.937 0.512 Q 273.331 0.569 273 0.9 Q 272.722 1.178 272.637 1.65 A 2.55 2.55 0 0 0 272.6 2.1 A 0.777 0.777 0 0 1 272.599 2.13 Q 272.583 2.563 272.105 4.134 A 63.125 63.125 0 0 1 271.85 4.95 A 136.841 136.841 0 0 1 271.337 6.521 Q 271.059 7.358 270.737 8.298 A 288.768 288.768 0 0 1 269.9 10.7 Q 268.7 14.1 267.35 17.6 Q 266 21.1 264.85 23.95 A 95.729 95.729 0 0 1 264.33 25.215 Q 263.534 27.108 263 28.1 A 1.345 1.345 0 0 1 262.925 28.538 A 1.758 1.758 0 0 1 262.75 28.9 A 1.83 1.83 0 0 0 262.608 29.175 A 1.374 1.374 0 0 0 262.5 29.7 A 1.372 1.372 0 0 1 262.499 29.761 Q 262.481 30.148 262.25 30.75 Q 262 31.4 262 31.9 Q 261.6 32.3 261.25 33.3 Q 261.059 33.847 260.972 34.334 A 4.376 4.376 0 0 0 260.9 35.1 A 3.292 3.292 0 0 1 260.871 35.538 A 3.678 3.678 0 0 1 260.6 36.5 A 2.743 2.743 0 0 1 260.529 36.653 Q 260.254 37.2 259.9 37.2 Q 259.738 37.525 259.278 38.675 A 127.923 127.923 0 0 0 259.05 39.25 A 53.742 53.742 0 0 0 259.008 39.357 Q 258.377 40.968 257.7 43 A 200.555 200.555 0 0 0 257.356 44.041 A 177.65 177.65 0 0 0 256.4 47.05 A 67.354 67.354 0 0 0 256.141 47.912 Q 255.753 49.234 255.6 50 A 3.502 3.502 0 0 1 255.598 50.104 Q 255.585 50.554 255.458 51.175 A 12.974 12.974 0 0 1 255.3 51.85 A 16.118 16.118 0 0 1 255.138 52.428 A 18.411 18.411 0 0 1 254.5 54.2 A 35.469 35.469 0 0 0 254.333 55.02 Q 253.851 57.531 253.86 59.552 A 15.071 15.071 0 0 0 253.9 60.6 A 11.327 11.327 0 0 0 254.087 62.003 Q 254.235 62.736 254.478 63.327 A 4.473 4.473 0 0 0 255.25 64.6 A 3.338 3.338 0 0 0 255.342 64.7 Q 256.301 65.699 257.756 65.508 Z M 103.1 61.9 Q 101 63.7 98.25 64 A 10.427 10.427 0 0 1 97.119 64.062 A 10.332 10.332 0 0 1 92.9 63.15 Q 90.3 62 88.6 59.6 Q 86.9 57.4 86.4 54.55 A 17.336 17.336 0 0 1 86.201 52.947 Q 86.004 50.502 86.3 47.1 A 17.712 17.712 0 0 1 87.512 41.96 A 22.496 22.496 0 0 1 88.8 39.25 Q 91 35.3 94.15 32.2 A 24.617 24.617 0 0 1 96.652 30.031 Q 98.035 28.996 99.408 28.332 A 13.317 13.317 0 0 1 100.4 27.9 A 8.375 8.375 0 0 1 101.171 27.44 Q 102.116 26.948 102.849 26.948 A 2.123 2.123 0 0 1 102.95 26.95 Q 103.981 26.999 106.121 27.193 A 213.46 213.46 0 0 1 106.2 27.2 A 19.603 19.603 0 0 1 107.403 27.392 Q 108.586 27.623 109.357 27.96 A 4.762 4.762 0 0 1 109.65 28.1 Q 110.8 28.7 111.5 29.7 Q 112.659 30.859 113.221 31.988 A 5.538 5.538 0 0 1 113.5 32.65 A 9.099 9.099 0 0 1 113.951 34.62 A 8.015 8.015 0 0 1 114 35.5 A 6.935 6.935 0 0 1 113.515 37.026 Q 112.878 38.483 111.515 40.26 A 28.413 28.413 0 0 1 111.05 40.85 A 18.328 18.328 0 0 1 106.469 44.856 A 22.557 22.557 0 0 1 104.4 46 A 13.155 13.155 0 0 1 101.273 46.579 Q 100.458 46.633 99.6 46.6 A 9.866 9.866 0 0 1 97.654 46.341 Q 96.316 46.017 95.3 45.3 A 5.898 5.898 0 0 0 94.834 45.125 Q 93.953 44.839 93.408 45.031 A 1.111 1.111 0 0 0 92.8 45.55 A 3.529 3.529 0 0 0 92.542 46.151 Q 92.192 47.178 91.879 49.287 A 57.347 57.347 0 0 0 91.7 50.6 A 21.932 21.932 0 0 0 91.615 51.628 Q 91.491 53.784 91.893 55.167 A 4.527 4.527 0 0 0 92.3 56.15 Q 93.3 57.9 95 58.2 Q 96.648 58.53 97.719 58.69 A 23.622 23.622 0 0 0 98.15 58.75 A 2.39 2.39 0 0 0 98.459 58.77 Q 99.501 58.77 100.941 57.934 A 10.777 10.777 0 0 0 101 57.9 A 66.796 66.796 0 0 1 101.558 57.555 Q 102.656 56.883 102.989 56.754 A 1.044 1.044 0 0 1 103 56.75 A 2.112 2.112 0 0 0 103.342 56.587 A 1.574 1.574 0 0 0 103.65 56.35 L 104.9 55.1 A 46.298 46.298 0 0 1 105.231 54.772 Q 105.7 54.313 106 54.05 A 1.426 1.426 0 0 1 106.446 53.779 A 1.301 1.301 0 0 1 106.9 53.7 A 1.084 1.084 0 0 1 107.567 53.932 A 1.619 1.619 0 0 1 107.8 54.15 Q 108.124 54.514 108.448 54.715 A 1.927 1.927 0 0 0 108.6 54.8 A 1.193 1.193 0 0 1 108.851 54.824 Q 109.477 54.959 109.109 55.864 A 3.41 3.41 0 0 1 109.05 56 A 6.107 6.107 0 0 1 108.604 56.794 Q 108.085 57.586 107.2 58.535 A 22.424 22.424 0 0 1 106.9 58.85 Q 105.3 60.5 103.1 61.9 Z M 135.6 61.9 Q 133.5 63.7 130.75 64 A 10.427 10.427 0 0 1 129.619 64.062 A 10.332 10.332 0 0 1 125.4 63.15 Q 122.8 62 121.1 59.6 Q 119.4 57.4 118.9 54.55 A 17.336 17.336 0 0 1 118.701 52.947 Q 118.504 50.502 118.8 47.1 A 17.712 17.712 0 0 1 120.012 41.96 A 22.496 22.496 0 0 1 121.3 39.25 Q 123.5 35.3 126.65 32.2 A 24.617 24.617 0 0 1 129.152 30.031 Q 130.535 28.996 131.908 28.332 A 13.317 13.317 0 0 1 132.9 27.9 A 8.375 8.375 0 0 1 133.671 27.44 Q 134.616 26.948 135.349 26.948 A 2.123 2.123 0 0 1 135.45 26.95 Q 136.481 26.999 138.621 27.193 A 213.46 213.46 0 0 1 138.7 27.2 A 19.603 19.603 0 0 1 139.903 27.392 Q 141.086 27.623 141.857 27.96 A 4.762 4.762 0 0 1 142.15 28.1 Q 143.3 28.7 144 29.7 Q 145.159 30.859 145.721 31.988 A 5.538 5.538 0 0 1 146 32.65 A 9.099 9.099 0 0 1 146.451 34.62 A 8.015 8.015 0 0 1 146.5 35.5 A 6.935 6.935 0 0 1 146.015 37.026 Q 145.378 38.483 144.015 40.26 A 28.413 28.413 0 0 1 143.55 40.85 A 18.328 18.328 0 0 1 138.969 44.856 A 22.557 22.557 0 0 1 136.9 46 A 13.155 13.155 0 0 1 133.773 46.579 Q 132.958 46.633 132.1 46.6 A 9.866 9.866 0 0 1 130.154 46.341 Q 128.816 46.017 127.8 45.3 A 5.898 5.898 0 0 0 127.334 45.125 Q 126.453 44.839 125.908 45.031 A 1.111 1.111 0 0 0 125.3 45.55 A 3.529 3.529 0 0 0 125.042 46.151 Q 124.692 47.178 124.379 49.287 A 57.347 57.347 0 0 0 124.2 50.6 A 21.932 21.932 0 0 0 124.115 51.628 Q 123.991 53.784 124.393 55.167 A 4.527 4.527 0 0 0 124.8 56.15 Q 125.8 57.9 127.5 58.2 Q 129.148 58.53 130.219 58.69 A 23.622 23.622 0 0 0 130.65 58.75 A 2.39 2.39 0 0 0 130.959 58.77 Q 132.001 58.77 133.441 57.934 A 10.777 10.777 0 0 0 133.5 57.9 A 66.796 66.796 0 0 1 134.058 57.555 Q 135.156 56.883 135.489 56.754 A 1.044 1.044 0 0 1 135.5 56.75 A 2.112 2.112 0 0 0 135.842 56.587 A 1.574 1.574 0 0 0 136.15 56.35 L 137.4 55.1 A 46.298 46.298 0 0 1 137.731 54.772 Q 138.2 54.313 138.5 54.05 A 1.426 1.426 0 0 1 138.946 53.779 A 1.301 1.301 0 0 1 139.4 53.7 A 1.084 1.084 0 0 1 140.067 53.932 A 1.619 1.619 0 0 1 140.3 54.15 Q 140.624 54.514 140.948 54.715 A 1.927 1.927 0 0 0 141.1 54.8 A 1.193 1.193 0 0 1 141.351 54.824 Q 141.977 54.959 141.609 55.864 A 3.41 3.41 0 0 1 141.55 56 A 6.107 6.107 0 0 1 141.104 56.794 Q 140.585 57.586 139.7 58.535 A 22.424 22.424 0 0 1 139.4 58.85 Q 137.8 60.5 135.6 61.9 Z M 289.8 61.9 Q 287.7 63.7 284.95 64 A 10.427 10.427 0 0 1 283.819 64.062 A 10.332 10.332 0 0 1 279.6 63.15 Q 277 62 275.3 59.6 Q 273.6 57.4 273.1 54.55 A 17.336 17.336 0 0 1 272.901 52.947 Q 272.704 50.502 273 47.1 A 17.712 17.712 0 0 1 274.212 41.96 A 22.496 22.496 0 0 1 275.5 39.25 Q 277.7 35.3 280.85 32.2 A 24.617 24.617 0 0 1 283.352 30.031 Q 284.735 28.996 286.108 28.332 A 13.317 13.317 0 0 1 287.1 27.9 A 8.375 8.375 0 0 1 287.871 27.44 Q 288.816 26.948 289.549 26.948 A 2.123 2.123 0 0 1 289.65 26.95 Q 290.681 26.999 292.821 27.193 A 213.46 213.46 0 0 1 292.9 27.2 A 19.603 19.603 0 0 1 294.103 27.392 Q 295.286 27.623 296.057 27.96 A 4.762 4.762 0 0 1 296.35 28.1 Q 297.5 28.7 298.2 29.7 Q 299.359 30.859 299.921 31.988 A 5.538 5.538 0 0 1 300.2 32.65 A 9.099 9.099 0 0 1 300.651 34.62 A 8.015 8.015 0 0 1 300.7 35.5 A 6.935 6.935 0 0 1 300.215 37.026 Q 299.578 38.483 298.215 40.26 A 28.413 28.413 0 0 1 297.75 40.85 A 18.328 18.328 0 0 1 293.169 44.856 A 22.557 22.557 0 0 1 291.1 46 A 13.155 13.155 0 0 1 287.973 46.579 Q 287.158 46.633 286.3 46.6 A 9.866 9.866 0 0 1 284.354 46.341 Q 283.016 46.017 282 45.3 A 5.898 5.898 0 0 0 281.534 45.125 Q 280.653 44.839 280.108 45.031 A 1.111 1.111 0 0 0 279.5 45.55 A 3.529 3.529 0 0 0 279.242 46.151 Q 278.892 47.178 278.579 49.287 A 57.347 57.347 0 0 0 278.4 50.6 A 21.932 21.932 0 0 0 278.315 51.628 Q 278.191 53.784 278.593 55.167 A 4.527 4.527 0 0 0 279 56.15 Q 280 57.9 281.7 58.2 Q 283.348 58.53 284.419 58.69 A 23.622 23.622 0 0 0 284.85 58.75 A 2.39 2.39 0 0 0 285.159 58.77 Q 286.201 58.77 287.641 57.934 A 10.777 10.777 0 0 0 287.7 57.9 A 66.796 66.796 0 0 1 288.258 57.555 Q 289.356 56.883 289.689 56.754 A 1.044 1.044 0 0 1 289.7 56.75 A 2.112 2.112 0 0 0 290.042 56.587 A 1.574 1.574 0 0 0 290.35 56.35 L 291.6 55.1 A 46.298 46.298 0 0 1 291.931 54.772 Q 292.4 54.313 292.7 54.05 A 1.426 1.426 0 0 1 293.146 53.779 A 1.301 1.301 0 0 1 293.6 53.7 A 1.084 1.084 0 0 1 294.267 53.932 A 1.619 1.619 0 0 1 294.5 54.15 Q 294.824 54.514 295.148 54.715 A 1.927 1.927 0 0 0 295.3 54.8 A 1.193 1.193 0 0 1 295.551 54.824 Q 296.177 54.959 295.809 55.864 A 3.41 3.41 0 0 1 295.75 56 A 6.107 6.107 0 0 1 295.304 56.794 Q 294.785 57.586 293.9 58.535 A 22.424 22.424 0 0 1 293.6 58.85 Q 292 60.5 289.8 61.9 Z M 192.565 58.905 A 2.021 2.021 0 0 0 192.9 59.3 Q 194.1 60.5 195.5 60 A 4.813 4.813 0 0 0 196.288 59.623 Q 197.519 58.907 199.3 57.2 A 16.297 16.297 0 0 1 200.379 55.827 A 12.424 12.424 0 0 1 201.85 54.4 A 87.077 87.077 0 0 0 202.313 54.021 Q 203.273 53.227 203.6 52.9 A 6.689 6.689 0 0 0 203.784 52.708 Q 204.42 52.018 205.8 50.25 Q 207.4 48.2 209.1 45.75 A 67.871 67.871 0 0 0 209.253 45.528 Q 210.837 43.227 211.6 41.7 A 1.978 1.978 0 0 0 211.77 41.503 Q 212.095 41.079 212.45 40.25 A 10.178 10.178 0 0 1 212.511 40.11 Q 212.731 39.617 213.027 39.092 A 17.074 17.074 0 0 1 213.7 38 A 19.172 19.172 0 0 0 214.457 36.862 Q 215.657 34.899 215.5 33.8 Q 215.317 32.517 213.285 32.746 A 7.363 7.363 0 0 0 212.9 32.8 A 1.836 1.836 0 0 0 212.749 32.845 Q 212.24 33.019 211.673 33.527 A 6.988 6.988 0 0 0 211.15 34.05 A 29.271 29.271 0 0 0 211.031 34.182 A 31.868 31.868 0 0 0 209.3 36.3 Q 208.4 37.5 207.7 38.5 Q 206.1 40.5 204.85 42.3 A 82.484 82.484 0 0 1 204.577 42.691 Q 203.379 44.395 201.5 46.9 A 49.393 49.393 0 0 1 201.199 47.297 A 44.867 44.867 0 0 1 199.05 49.9 A 180.492 180.492 0 0 1 198.621 50.379 Q 197.966 51.107 197.616 51.477 A 11.752 11.752 0 0 1 197.4 51.7 A 2.612 2.612 0 0 1 197.34 51.758 Q 196.693 52.365 196.213 51.933 A 1.202 1.202 0 0 1 196.05 51.75 Q 195.5 51 195.1 50.2 A 0.979 0.979 0 0 0 195.094 50.102 Q 195.04 49.579 194.5 47.6 A 27.382 27.382 0 0 1 194.23 46.519 Q 193.806 44.673 193.5 42.3 A 94.349 94.349 0 0 0 192.953 39.043 Q 192.372 35.934 191.7 33.75 A 20.682 20.682 0 0 0 191.56 33.312 Q 190.902 31.331 190.159 30.55 A 1.65 1.65 0 0 0 189.5 30.1 Q 189.186 30.022 188.657 30.097 A 5.591 5.591 0 0 0 188.35 30.15 A 5.699 5.699 0 0 0 188.191 30.184 Q 187.885 30.254 187.624 30.352 A 3.154 3.154 0 0 0 187.1 30.6 A 3.679 3.679 0 0 0 186.701 30.868 A 2.539 2.539 0 0 0 185.7 32.5 A 3.957 3.957 0 0 0 185.67 32.719 Q 185.545 33.861 186 35.5 A 118.219 118.219 0 0 1 186.03 35.591 Q 186.322 36.47 186.75 37.8 Q 187.2 39.2 187.6 41.2 Q 188.2 44.6 189.15 48.65 A 97.539 97.539 0 0 0 189.419 49.768 Q 190.248 53.122 191.15 55.7 A 35.672 35.672 0 0 0 191.504 56.67 Q 192.098 58.219 192.565 58.905 Z M 218.797 60.636 A 4.444 4.444 0 0 0 219.8 62.2 Q 221.042 63.588 221.777 63.588 A 0.671 0.671 0 0 0 222.25 63.4 A 1.776 1.776 0 0 0 222.564 62.971 Q 223.184 61.86 223.9 58.6 A 6.388 6.388 0 0 0 224.299 57.852 A 7.957 7.957 0 0 0 224.7 56.75 A 32.566 32.566 0 0 0 224.911 55.977 A 27.317 27.317 0 0 0 225.2 54.75 A 19.01 19.01 0 0 1 225.239 54.569 Q 225.359 54.027 225.478 53.646 A 4.853 4.853 0 0 1 225.6 53.3 Q 226 52 226.55 50.55 Q 226.928 49.553 227.235 48.863 A 14.082 14.082 0 0 1 227.5 48.3 A 10.637 10.637 0 0 1 227.564 47.954 Q 227.67 47.426 227.839 46.844 A 19.166 19.166 0 0 1 228.25 45.6 Q 228.8 44.1 229.2 43.3 A 28.669 28.669 0 0 0 229.223 43.25 Q 229.931 41.696 230.26 40.48 A 8.678 8.678 0 0 0 230.5 39.3 Q 230.6 38.5 230.45 37.9 A 2.103 2.103 0 0 0 229.9 36.9 A 20.447 20.447 0 0 0 229.757 36.675 Q 228.857 35.275 228.3 34.95 A 1.156 1.156 0 0 0 227.944 34.818 Q 227.385 34.705 226.5 35 A 3.613 3.613 0 0 0 226.142 35.039 Q 225.313 35.175 225.037 35.691 A 1.275 1.275 0 0 0 224.9 36.3 A 4.632 4.632 0 0 1 224.886 36.356 Q 224.791 36.713 224.473 37.742 A 188.752 188.752 0 0 1 224.3 38.3 A 558.967 558.967 0 0 1 223.968 39.359 Q 223.581 40.588 223.1 42.1 Q 222.4 44.3 221.6 46.55 A 83.802 83.802 0 0 1 221.231 47.569 Q 220.927 48.388 220.639 49.109 A 43.998 43.998 0 0 1 220.1 50.4 Q 219.8 51.3 219.5 52.3 Q 219.24 53.167 219.281 53.583 A 0.806 0.806 0 0 0 219.3 53.7 A 0.956 0.956 0 0 1 219.329 53.933 Q 219.329 54.229 219.15 54.55 Q 218.978 54.859 218.924 55.334 A 4.155 4.155 0 0 0 218.9 55.8 A 3.853 3.853 0 0 0 218.759 56.119 Q 218.615 56.486 218.524 56.924 A 7.273 7.273 0 0 0 218.4 57.8 Q 218.3 59 218.65 60.2 A 5.433 5.433 0 0 0 218.797 60.636 Z M 103 40.7 A 9.396 9.396 0 0 0 104.089 40.11 Q 104.681 39.74 105.3 39.25 A 11.256 11.256 0 0 0 107.076 37.504 A 10.304 10.304 0 0 0 107.35 37.15 A 6.822 6.822 0 0 0 107.751 36.547 Q 108.123 35.913 108.187 35.405 A 1.644 1.644 0 0 0 108.2 35.2 A 2.684 2.684 0 0 0 107.325 33.206 A 4.04 4.04 0 0 0 106.9 32.85 A 2.746 2.746 0 0 0 105.859 32.393 Q 104.845 32.169 103.391 32.502 A 10.745 10.745 0 0 0 103 32.6 A 4.511 4.511 0 0 0 102.171 32.925 Q 101.784 33.119 101.366 33.4 A 11.414 11.414 0 0 0 100.5 34.05 Q 99.1 35.2 97.85 36.6 A 34.257 34.257 0 0 0 96.983 37.608 Q 96.319 38.413 95.85 39.1 Q 95.18 40.082 95.268 40.347 A 0.133 0.133 0 0 0 95.3 40.4 A 0.895 0.895 0 0 0 95.565 40.668 Q 96.005 40.972 97 41.15 Q 98.35 41.391 100.025 41.307 A 18.443 18.443 0 0 0 100.15 41.3 Q 101.41 41.228 102.332 40.949 A 5.372 5.372 0 0 0 103 40.7 Z M 135.5 40.7 A 9.396 9.396 0 0 0 136.589 40.11 Q 137.181 39.74 137.8 39.25 A 11.256 11.256 0 0 0 139.576 37.504 A 10.304 10.304 0 0 0 139.85 37.15 A 6.822 6.822 0 0 0 140.251 36.547 Q 140.623 35.913 140.687 35.405 A 1.644 1.644 0 0 0 140.7 35.2 A 2.684 2.684 0 0 0 139.825 33.206 A 4.04 4.04 0 0 0 139.4 32.85 A 2.746 2.746 0 0 0 138.359 32.393 Q 137.345 32.169 135.891 32.502 A 10.745 10.745 0 0 0 135.5 32.6 A 4.511 4.511 0 0 0 134.671 32.925 Q 134.284 33.119 133.866 33.4 A 11.414 11.414 0 0 0 133 34.05 Q 131.6 35.2 130.35 36.6 A 34.257 34.257 0 0 0 129.483 37.608 Q 128.819 38.413 128.35 39.1 Q 127.68 40.082 127.768 40.347 A 0.133 0.133 0 0 0 127.8 40.4 A 0.895 0.895 0 0 0 128.065 40.668 Q 128.505 40.972 129.5 41.15 Q 130.85 41.391 132.525 41.307 A 18.443 18.443 0 0 0 132.65 41.3 Q 133.91 41.228 134.832 40.949 A 5.372 5.372 0 0 0 135.5 40.7 Z M 289.7 40.7 A 9.396 9.396 0 0 0 290.789 40.11 Q 291.381 39.74 292 39.25 A 11.256 11.256 0 0 0 293.776 37.504 A 10.304 10.304 0 0 0 294.05 37.15 A 6.822 6.822 0 0 0 294.451 36.547 Q 294.823 35.913 294.887 35.405 A 1.644 1.644 0 0 0 294.9 35.2 A 2.684 2.684 0 0 0 294.025 33.206 A 4.04 4.04 0 0 0 293.6 32.85 A 2.746 2.746 0 0 0 292.559 32.393 Q 291.545 32.169 290.091 32.502 A 10.745 10.745 0 0 0 289.7 32.6 A 4.511 4.511 0 0 0 288.871 32.925 Q 288.484 33.119 288.066 33.4 A 11.414 11.414 0 0 0 287.2 34.05 Q 285.8 35.2 284.55 36.6 A 34.257 34.257 0 0 0 283.683 37.608 Q 283.019 38.413 282.55 39.1 Q 281.88 40.082 281.968 40.347 A 0.133 0.133 0 0 0 282 40.4 A 0.895 0.895 0 0 0 282.265 40.668 Q 282.705 40.972 283.7 41.15 Q 285.05 41.391 286.725 41.307 A 18.443 18.443 0 0 0 286.85 41.3 Q 288.11 41.228 289.032 40.949 A 5.372 5.372 0 0 0 289.7 40.7 Z M 229.117 21.13 A 3.2 3.2 0 0 0 229.5 21.6 A 6.051 6.051 0 0 0 229.929 21.909 Q 230.881 22.531 231.762 22.531 A 2.453 2.453 0 0 0 232.15 22.5 A 2.162 2.162 0 0 0 232.681 22.339 Q 233.712 21.884 234.9 20.3 A 28.073 28.073 0 0 0 235.568 19.453 Q 236.365 18.398 236.777 17.605 A 4.927 4.927 0 0 0 237.1 16.85 Q 237.407 15.891 236.948 14.549 A 8.136 8.136 0 0 0 236.6 13.7 A 8.923 8.923 0 0 0 236.115 12.998 Q 235.755 12.528 235.377 12.185 A 3.888 3.888 0 0 0 234.45 11.55 A 2.532 2.532 0 0 0 234.318 11.491 Q 233.231 11.046 232.1 11.8 A 1.25 1.25 0 0 0 231.724 11.963 A 1.493 1.493 0 0 0 231.4 12.25 A 1.451 1.451 0 0 0 231.272 12.422 A 1.069 1.069 0 0 0 231.1 13 A 2.3 2.3 0 0 1 231.131 13.379 Q 231.131 14.121 230.681 15.002 A 7.2 7.2 0 0 1 230.2 15.8 A 12.283 12.283 0 0 1 230.168 15.847 Q 229.088 17.401 228.3 17.5 A 0.165 0.165 0 0 0 228.174 17.555 Q 228.025 17.716 228.1 18.35 Q 228.2 19.2 228.6 20.15 A 6.994 6.994 0 0 0 228.794 20.572 Q 228.949 20.881 229.117 21.13 Z" vector-effect="non-scaling-stroke"/></g></svg>